<svg xmlns="http://www.w3.org/2000/svg" height="57.196" viewBox="0 0 237.30063 57.196251" width="237.3"><g transform="matrix(1.25 0 0 -1.25 -181.82 585.79)"><path d="m0.81836 1.1641v1.7929l6.8496 2.9375v45.002l-6.8496 2.856-0.00004 1.795h22.748c7.99 0 13.452-1.551 18.182-5.301 6.359-5.055 9.863-13.21 9.863-23.074 0-7.581-2.036-13.613-6.275-18.588-4.729-5.4625-10.029-7.4199-20.545-7.4199h-23.973zm55.961 0v1.7929l6.852 2.9375v45.002l-6.852 2.858v1.791h20.627v-1.791l-6.847-2.858v-21.683h8.343l18.18 26.332h12.228 41.67l1.14-12.149h-1.96l-4.89 9.295h-22.18v-23.478h18.84l2.77 7.662h1.88v-17.854h-1.88l-2.77 7.336h-18.84v-22.338l21.69 0.0005 3.84 8.9665h2.03v-11.822l-41.34 0.0001v1.875l6.85 2.8554v45.002l-6.85 2.858-7.09-2.858-15.982-23.07c8.479-1.225 13.371-6.279 13.371-13.779 0-4.0776-1.549-7.4183-4.402-9.7833-2.936-2.5275-6.831-3.0996-13.518-3.0996h-24.91zm97.421 0v1.7949l6.28 2.9355 16.22 50.466 2.61 0.001 15.33-43.132 14.02 43.132h2.86l18.26-50.466 6.36-2.936v-1.7949h-17.45v1.7949l6.52 2.9355-13.37 38.562-0.73-2.446-0.74-2.201-0.89-2.69-11.58-35.955-3.18 0.0001-15.25 43.375c-0.73-3.18-1.14-4.647-2.11-7.664l-9.79-30.98 6.52-2.936v-1.7949h-19.89zm-139.6 2.8554h9.211c7.827 0 12.393 2.1185 15.898 7.3355 3.099 4.402 4.566 10.03 4.566 16.795 0 7.908-2.039 13.86-6.441 18.59-3.996 4.32-8.234 5.951-15 5.951h-8.234v-48.672zm55.959 0h11.033c6.767 0 10.679 3.9931 10.679 10.842 0 6.849-4.4 11.495-10.841 11.495h-10.871v-22.338z" transform="matrix(.8 0 0 -.8 145.45 468.63)" fill="#1a3a59"/></g></svg>
